<?xml version="1.0" encoding="UTF-8"?>
<svg width="20px" height="20px" viewBox="0 0 20 20" version="1.1" xmlns="http://www.w3.org/2000/svg" xmlns:xlink="http://www.w3.org/1999/xlink">
    <!-- Generator: Sketch 50 (54983) - http://www.bohemiancoding.com/sketch -->
    <title>Close</title>
    <desc>Created with Sketch.</desc>
    <defs></defs>
    <g id="Page-1" stroke="none" stroke-width="1" fill="none" fill-rule="evenodd">
        <g id="Open-Menu" transform="translate(-312.000000, -581.000000)" fill="#FFFFFF">
            <g id="Close-Button" transform="translate(290.000000, 559.000000)">
                <path d="M41.6912129,23.7997429 C42.102929,23.3880268 42.102929,22.7205031 41.6912129,22.3087871 C41.2794969,21.897071 40.6119732,21.897071 40.2002571,22.3087871 L32,30.5090442 L23.7997429,22.3087871 C23.3880268,21.897071 22.7205031,21.897071 22.3087871,22.3087871 C21.897071,22.7205031 21.897071,23.3880268 22.3087871,23.7997429 L30.5090442,32 L22.3087871,40.2002571 C21.897071,40.6119732 21.897071,41.2794969 22.3087871,41.6912129 C22.7205031,42.102929 23.3880268,42.102929 23.7997429,41.6912129 L32,33.4909558 L40.2002571,41.6912129 C40.6119732,42.102929 41.2794969,42.102929 41.6912129,41.6912129 C42.102929,41.2794969 42.102929,40.6119732 41.6912129,40.2002571 L33.4909558,32 L41.6912129,23.7997429 Z" id="Close"></path>
            </g>
        </g>
    </g>
</svg>