<?xml version="1.0" encoding="UTF-8"?>
<svg width="34px" height="21px" viewBox="0 0 34 21" version="1.1" xmlns="http://www.w3.org/2000/svg" xmlns:xlink="http://www.w3.org/1999/xlink">
    <!-- Generator: Sketch 50 (54983) - http://www.bohemiancoding.com/sketch -->
    <title>path4277</title>
    <desc>Created with Sketch.</desc>
    <defs></defs>
    <g id="Symbols" stroke="none" stroke-width="1" fill="none" fill-rule="evenodd">
        <g id="Menu" transform="translate(-20.000000, -56.000000)" fill="#FFFFFF" fill-rule="nonzero" stroke="#FFFFFF" stroke-width="0.32179821">
            <g id="path4277">
                <path d="M24.4786324,56.3754483 C24.0777983,56.3780934 24.021417,56.3929089 23.8092835,56.4511184 C22.9423117,56.7680832 22.8097353,56.8272091 22.7152057,56.8758472 C22.124489,57.1852981 21.7245988,57.5086508 21.5815494,57.7926059 C21.486279,57.9817187 21.3840905,58.2975528 21.263177,58.7764914 C21.0464352,59.6350069 20.9773093,60.0878585 20.9575327,60.7819228 C20.7964296,62.070105 22.1796021,63.0204504 23.3163818,63.1775609 C23.8032696,63.2685453 24.9111469,63.3371686 25.6016532,63.2961223 C28.7487405,63.0935887 32.9150792,61.7572052 32.0477323,65.7759737 C31.9470833,66.2268941 31.7981751,66.6827681 31.4148239,67.7141044 C31.2043891,68.2802399 31.0922645,68.6197052 31.103775,68.6559701 C31.1136732,68.6871565 31.1692213,68.7421994 31.2272181,68.778367 C31.3544052,68.857685 31.7895096,69.0460603 32.0078055,69.1162674 C32.4954416,69.2730956 32.5341535,69.2385 34.0913477,67.2597347 C35.1469985,65.9182921 35.3900479,65.1206997 36.1688642,64.3352141 C37.5073627,62.8879939 39.5624055,63.888376 41.0039364,64.1976457 C40.4959638,63.283075 38.6794676,62.0820936 37.8467806,61.9872391 C37.7599024,61.9782621 37.6717315,61.9644087 37.5829813,61.9715472 C36.0836981,62.0788746 33.9246792,63.4757631 33.204473,64.5678609 C33.1285152,64.3323975 32.8115004,63.1090456 32.5030081,62.9302419 C31.0356782,62.3549715 29.5559076,62.3519906 27.9285953,62.4865919 C21.1834939,61.9273242 21.0750462,54.1959015 30.9880028,58.8502435 C31.1269967,58.9672341 31.8163602,59.3183996 32.4818771,59.6113032 C35.8650515,61.1002887 39.6478813,61.9965705 44.7481017,62.5176271 C47.4684998,62.4517596 50.6192738,63.3666103 52.8742657,63.0856758 C52.8820947,63.0730057 52.8264136,62.9824151 52.7504735,62.8842957 C52.0854164,62.0933329 51.9482454,61.7052652 50.9675196,61.4303492 C50.2278357,61.2457029 49.8646996,61.1759963 49.2740096,61.1050027 C48.8957584,61.0595423 48.4915814,61.0546534 45.0211414,61.054091 C41.0835704,61.0534572 40.9373885,61.0499551 40.1827893,60.9376219 C39.8301809,60.8851311 39.5452041,60.8267853 39.1901862,60.7343239 C36.4622439,60.1808832 34.0132848,59.193159 32.3223422,58.425166 C27.7996486,56.6135155 28.6536108,56.3953085 25.0128563,56.375797 C24.7841446,56.375148 24.6122439,56.3745673 24.4786324,56.375448 L24.4786324,56.3754483 Z M24.8548905,63.2556719 C24.8835277,63.2556719 24.9121487,63.2590918 24.9338734,63.2661676 C24.9773227,63.2803173 24.941789,63.2920308 24.8548905,63.2920308 C24.7679921,63.2920308 24.732284,63.2803165 24.7757334,63.2661676 C24.7974579,63.2590918 24.8262535,63.2556719 24.8548905,63.2556719 Z M25.5462082,63.6847596 C25.3743127,63.6827832 25.2149409,63.6971 25.0309891,63.7250356 C24.12755,63.8622357 23.4939431,64.2993457 22.8972324,65.1969405 C21.5745158,67.2309996 20.3455109,70.2293436 20.25,72.6173163 C20.2499852,73.2257192 20.2563429,73.3151033 20.3136396,73.522219 C20.4011962,73.8387187 20.555751,74.1416343 20.7071589,74.293042 C20.9141038,74.4999872 21.4666563,74.6945998 21.9846581,74.7430527 C22.6675105,74.806927 23.570242,74.6564825 24.4277208,74.3359335 C24.8808427,74.1665432 25.6884013,73.7643811 26.1325642,73.4869994 C27.0399076,72.9203595 28.0626704,72.0401676 28.7813657,71.2073074 C29.9860665,68.884066 32.5521145,65.5358202 29.5274306,64.009583 C29.2870128,63.8936767 29.1572503,63.8881882 28.3400732,63.9588457 C27.7100832,64.0133181 27.4330227,63.9938565 26.6798646,63.8423765 C26.1537415,63.7365593 25.8327008,63.6880529 25.5462082,63.6847596 Z M26.4920842,65.1831671 C32.3282652,64.6065344 25.1125422,71.5291097 23.4678964,72.8462442 C22.4761056,73.6282331 22.5498407,73.3594766 22.6864372,71.9709817 C22.9209612,70.6992383 23.471264,69.4535982 24.9009203,66.957752 C25.796723,65.3938884 25.9578461,65.2140937 26.4920842,65.1831671 Z M36.4777447,65.5137438 C36.4544739,65.5142794 36.4371065,65.516163 36.4264851,65.5196713 C36.1134482,65.6229475 34.6504398,67.1122164 34.0618815,67.8961299 C33.7387464,68.3265218 33.301462,69.0949266 32.7488142,70.2042419 C32.3012531,71.1048676 31.5267566,72.5301738 31.5665129,74.0248837 C31.6261424,74.7483197 31.9819422,75.4650738 32.4787384,75.8622368 C32.8880215,76.1894391 33.4958032,76.4228635 34.0798408,76.4770127 C35.0628188,76.5681509 36.3701086,76.2358924 37.1090847,75.707235 C37.4785142,75.4429483 38.3161611,74.6286232 39.5737677,72.9135446 C40.5170029,71.6271949 41.211544,70.3636054 41.4357049,69.2815549 C41.4897184,69.0208255 41.4954174,68.9238053 41.481211,68.5093365 C41.457667,67.8224931 41.3662209,67.457569 41.0585749,66.8219289 C40.749057,66.1824199 40.6598247,66.1289991 39.7965931,66.067843 C38.8950541,66.0039723 38.3619984,65.9900543 37.5714744,65.7341276 C37.094431,65.5796883 36.6406433,65.5099748 36.4777447,65.5137438 Z M38.6115021,66.4951882 C38.782102,66.4906443 38.8558942,66.5226529 38.9276072,66.7786893 C39.0639847,67.1088732 39.0775992,67.0519637 39.2398774,68.4232064 C39.3456969,69.3173735 39.1301746,69.9134242 38.5977278,70.9618155 C38.1888704,71.7668575 37.7255746,72.3667539 36.7969895,73.2938133 C35.9855987,74.1038722 35.2249006,74.737011 34.4102434,75.2804148 C34.2072609,75.4154157 33.9896453,75.6129385 33.7837857,75.5919869 C33.6681277,75.4763289 33.5929733,75.0475948 33.5921699,74.4987812 C33.5887955,72.2826189 34.9570511,69.0270949 36.5624814,67.4316495 C36.9840427,67.016271 37.6436669,66.4929778 38.4050657,66.5049525 C38.4869261,66.5022476 38.5546354,66.496704 38.6115021,66.4951882 Z M30.8199148,67.0563391 C30.8264014,67.0498525 30.834788,67.0583158 30.8446522,67.0829515 C30.8625,67.1275307 30.860293,67.1808745 30.8397777,67.2013975 C30.8192604,67.2219187 30.8048555,67.1855264 30.8075422,67.1204338 C30.8090775,67.0844619 30.8134147,67.0628315 30.8199206,67.0563391 L30.8199148,67.0563391 Z M21.6669535,67.7338063 C21.6803028,67.7338063 21.6913172,67.7754396 21.6913172,67.8263883 C21.6913172,67.8773371 21.664245,67.9189704 21.6313448,67.9189704 C21.5984452,67.9189704 21.5878048,67.8773371 21.6073558,67.8263883 C21.626907,67.7754396 21.6536041,67.7338063 21.6669535,67.7338063 Z"></path>
            </g>
        </g>
    </g>
</svg>